<?xml version="1.0" standalone="no"?>
<!DOCTYPE svg PUBLIC "-//W3C//DTD SVG 20010904//EN"
 "http://www.w3.org/TR/2001/REC-SVG-20010904/DTD/svg10.dtd">
<svg version="1.0" xmlns="http://www.w3.org/2000/svg"
 width="500.000000pt" height="500.000000pt" viewBox="0 0 500.000000 500.000000"
 preserveAspectRatio="xMidYMid meet">

<g transform="translate(0.000000,500.000000) scale(0.100000,-0.100000)"
fill="#000000" stroke="none">
<path d="M658 3172 c-92 -11 -108 -156 -21 -201 49 -25 120 -2 142 46 39 85
-25 167 -121 155z"/>
<path d="M865 3158 c-3 -7 -4 -200 -3 -428 l3 -415 95 0 95 0 3 148 3 147 119
0 c139 0 133 -6 128 120 l-3 75 -122 3 -123 3 0 74 0 74 138 3 137 3 0 100 0
100 -233 3 c-181 2 -234 0 -237 -10z"/>
<path d="M1427 3083 c-4 -3 -7 -129 -7 -279 0 -267 0 -272 20 -267 32 9 35
-23 6 -67 l-26 -40 0 -251 c0 -242 -1 -251 -20 -256 -11 -3 -20 -9 -20 -14 0
-19 -33 -7 -103 38 -193 125 -272 181 -273 191 -1 7 -2 16 -3 22 0 5 -10 14
-21 20 -28 15 -60 -4 -60 -34 0 -32 -250 -269 -289 -274 -37 -5 -53 -21 -49
-50 6 -52 88 -41 88 12 0 16 37 57 129 144 168 159 147 158 376 10 158 -104
173 -116 178 -147 9 -48 33 -71 77 -71 45 0 68 16 78 54 5 16 15 33 23 37 7 5
97 38 199 73 149 52 195 65 235 62 59 -3 105 -29 105 -60 0 -29 18 -46 50 -46
32 0 50 17 50 47 0 15 16 34 53 61 75 56 97 66 110 53 6 -6 28 -11 48 -11 72
0 103 87 48 133 -50 41 -136 -3 -127 -65 4 -25 -3 -33 -63 -74 -54 -38 -77
-47 -116 -49 -57 -3 -120 27 -125 59 -5 32 -55 35 -67 4 -7 -17 -27 -29 -77
-46 -69 -23 -161 -56 -199 -72 -11 -5 -47 -18 -80 -30 -58 -21 -60 -21 -75 -3
-8 11 -23 22 -32 26 -16 6 -18 25 -18 197 l0 190 24 0 c58 0 56 -14 57 314 l1
301 23 -75 c13 -41 44 -151 70 -244 58 -211 76 -268 88 -283 5 -7 27 -13 48
-13 45 0 47 3 79 120 43 162 100 365 110 396 5 17 10 37 10 45 0 8 7 24 15 35
14 17 15 -9 9 -266 -4 -157 -3 -296 1 -308 6 -20 12 -23 53 -20 l47 3 0 385 0
385 -85 0 -84 0 -7 -30 c-3 -16 -16 -66 -29 -110 -12 -44 -25 -93 -30 -110 -5
-16 -18 -64 -29 -105 -12 -41 -29 -108 -38 -147 -10 -40 -20 -73 -23 -73 -5 0
-34 100 -126 445 -39 144 -31 135 -122 135 -43 0 -82 -3 -85 -7z"/>
<path d="M3207 3024 c-4 -4 -7 -43 -7 -86 l0 -78 -41 0 -40 0 3 -42 c3 -42 4
-43 39 -46 l37 -3 4 -187 c3 -162 6 -191 22 -219 26 -42 83 -68 133 -59 72 13
73 14 73 62 l0 44 -43 0 c-24 0 -48 5 -55 12 -8 8 -12 63 -12 179 l0 168 53 3
52 3 0 40 0 40 -52 3 -53 3 -2 62 c-1 34 -2 71 -2 82 -1 17 -9 20 -52 23 -27
2 -53 0 -57 -4z"/>
<path d="M592 2892 c-9 -7 -12 -72 -10 -293 l3 -284 88 -3 c57 -2 94 1 103 9
19 16 21 548 2 567 -14 14 -165 17 -186 4z"/>
<path d="M2375 2874 c-6 -1 -27 -5 -48 -9 -46 -8 -112 -64 -133 -114 -19 -46
-28 -161 -20 -244 9 -83 51 -152 111 -182 52 -26 159 -26 235 1 l55 19 3 48
c3 53 1 54 -60 30 -26 -11 -70 -18 -110 -18 -60 0 -71 3 -94 26 -18 18 -28 41
-31 73 l-6 46 150 0 c102 0 153 4 161 12 27 27 3 181 -37 237 -12 17 -36 38
-52 46 -30 16 -106 34 -124 29z m66 -104 c25 -14 49 -62 49 -100 l0 -30 -106
0 -107 0 7 40 c8 49 23 75 51 89 27 13 82 13 106 1z"/>
<path d="M2785 2855 c-46 -25 -72 -53 -96 -104 -19 -39 -23 -64 -23 -161 -1
-77 4 -126 13 -150 48 -118 139 -159 283 -129 91 20 108 33 108 84 0 50 -4 52
-57 30 -46 -20 -130 -28 -167 -17 -38 10 -63 46 -71 99 l-7 42 159 3 158 3 -1
80 c0 97 -25 159 -78 200 -32 24 -49 29 -114 32 -58 3 -84 0 -107 -12z m169
-108 c17 -22 26 -47 26 -70 l0 -37 -105 0 c-115 0 -112 -2 -95 62 14 50 52 78
106 78 37 0 47 -5 68 -33z"/>
<path d="M4175 2860 c-11 -4 -31 -20 -45 -35 l-25 -27 -5 29 c-5 26 -8 28 -55
28 l-50 0 0 -380 0 -380 53 -3 52 -3 0 135 c0 75 4 136 9 136 5 0 15 -7 22
-17 49 -58 169 -54 229 8 49 52 63 105 63 239 0 161 -25 224 -105 266 -29 15
-111 18 -143 4z m93 -103 c28 -22 42 -80 42 -173 0 -126 -20 -171 -82 -180
-43 -6 -77 13 -102 56 -30 50 -30 209 0 260 30 53 100 71 142 37z"/>
<path d="M3497 2854 c-12 -12 -8 -346 5 -410 13 -68 37 -108 78 -129 53 -27
127 -12 179 37 32 31 41 28 41 -14 0 -28 1 -29 48 -26 l47 3 3 273 2 272 -55
0 -55 0 0 -172 c0 -238 -15 -279 -100 -282 -72 -1 -74 6 -80 242 l-5 207 -50
3 c-28 2 -54 0 -58 -4z"/>
</g>
</svg>
